<mxfile host="app.diagrams.net" modified="2023-11-21T18:18:04.314Z" agent="Mozilla/5.0 (Macintosh; Intel Mac OS X 10_15_7) AppleWebKit/537.36 (KHTML, like Gecko) Chrome/119.0.0.0 Safari/537.36" version="22.1.3" etag="-p78ypuEmeudZdhiz3qR" type="github">
  <diagram name="PÃ¡gina-1" id="GC3bQp9kBZes_taBvnxz">
    <mxGraphModel>
      <root>
        <mxCell id="0" />
        <mxCell id="1" parent="0" />
      </root>
    </mxGraphModel>
  </diagram>
</mxfile>
